<svg id="Layer_1" data-name="Layer 1" xmlns="http://www.w3.org/2000/svg" width="354.75" height="161.12" viewBox="0 0 354.75 161.12"><defs><style>.cls-1{fill:#9b613a;}.cls-1,.cls-2{stroke:#020201;stroke-miterlimit:10;}.cls-2{fill:#f4f3f2;}.cls-3{font-size:8px;font-family:Handwriting-Dakota, Handwriting - Dakota;}.cls-4{fill:#437dd1;}.cls-5{fill:#8c562d;}.cls-6{fill:#050403;}</style></defs><title>forgrund</title><polygon class="cls-1" points="1.22 3.71 29.49 60.78 353.62 52.04 305 0.5 1.22 3.71"/><polyline class="cls-1" points="0.5 3.17 0.67 142.98 6.78 142.98 6.78 27.09 6.78 14.95"/><polyline class="cls-1" points="28.05 58.72 28.05 160.62 19.76 160.62 19.76 41.99"/><polyline class="cls-1" points="33.07 60.35 33.07 71.89 346.29 65.68 346.29 52.24"/><polygon class="cls-1" points="309.03 141.98 309.03 66.42 317.91 66.42 317.9 141.98 309.03 141.98"/><polyline class="cls-1" points="330.79 65.89 330.79 154.41 341.86 154.41 341.86 65.68"/><rect class="cls-2" x="704.12" y="385.88" width="40.5" height="31.74" transform="translate(-564.91 519.59) rotate(-65.16)"/><text class="cls-3" transform="translate(97.79 15.08) rotate(24.84)">Niller <tspan x="0" y="9.6">er </tspan><tspan x="0" y="19.2">dåm</tspan></text><rect class="cls-4" x="734.53" y="395.89" width="2" height="33" transform="matrix(0.96, -0.27, 0.27, 0.96, -705.22, -153.42)"/><polygon class="cls-5" points="109.76 23.98 110.4 23.8 111.59 25.54 109.67 26.08 109.76 23.98"/><polygon class="cls-6" points="108.09 21.26 109.36 24.02 110.19 23.46 108.09 21.26"/></svg>
